<?xml version="1.0" encoding="UTF-8"?>
<svg viewBox="0 0 300.60001 300.16888" xmlns="http://www.w3.org/2000/svg">
 <g transform="matrix(.74277 -.73942 .73942 .74277 222.53 -52.086)" fill="#390" stroke="#390">
  <path d="m-308.08 15.23c-7.756 0-14 6.244-14 14v117.72c0 7.756 6.244 14 14 14h246.31c7.756 0 14-6.244 14-14v-117.72c0-7.756-6.244-14-14-14h-246.31zm5.0938 5.9375h236.12c6.648 0 12 5.352 12 12v109.88c0 6.648-5.352 12-12 12h-236.12c-6.648 0-12-5.352-12-12v-109.88c0-6.648 5.352-12 12-12z" stroke-linecap="round" stroke-linejoin="round" stroke-opacity=".5571" stroke-width=".6"/>
  <g font-family="Ubuntu" font-size="46" font-weight="bold" letter-spacing="0" word-spacing="0">
   <path d="m-285.23 104.07c-0.33735-1.104-0.72069-2.2387-1.15-3.404l-1.196-3.496h-12.42c-0.39867 1.1653-0.81267 2.3307-1.242 3.496-0.39867 1.1653-0.76667 2.3-1.104 3.404h-7.452c1.196-3.4347 2.3307-6.6087 3.404-9.522s2.116-5.658 3.128-8.234c1.0427-2.576 2.0547-5.014 3.036-7.314 1.012-2.3306 2.0547-4.6 3.128-6.808h6.854c1.0426 2.208 2.07 4.4774 3.082 6.808 1.012 2.3 2.024 4.738 3.036 7.314 1.0426 2.576 2.1006 5.3207 3.174 8.234s2.208 6.0873 3.404 9.522h-7.682m-8.602-24.656c-0.15335 0.46002-0.38334 1.0887-0.69 1.886l-1.058 2.76c-0.39868 1.0427-0.84334 2.1927-1.334 3.45-0.46001 1.2574-0.93534 2.576-1.426 3.956h9.062c-0.49068-1.38-0.96602-2.6986-1.426-3.956s-0.90468-2.4073-1.334-3.45l-1.058-2.76c-0.30668-0.79731-0.55201-1.426-0.736-1.886"/>
   <path d="m-263.85 71.828c4.7533 3.2e-5 8.4026 0.84337 10.948 2.53 2.5453 1.656 3.818 4.3854 3.818 8.188-3e-5 3.8334-1.288 6.6087-3.864 8.326-2.576 1.6867-6.256 2.53-11.04 2.53h-2.254v10.672h-7.176v-31.418c1.564-0.30663 3.22-0.5213 4.968-0.644s3.2813-0.18397 4.6-0.184m0.46 6.118c-0.52135 2.6e-5 -1.0427 0.01536-1.564 0.046-0.49068 0.03069-0.92001 0.06136-1.288 0.092v9.2h2.254c2.484 1.7e-5 4.3546-0.33732 5.612-1.012s1.886-1.932 1.886-3.772c-2e-5 -0.88931-0.16869-1.6253-0.506-2.208-0.30669-0.58264-0.76669-1.0426-1.38-1.38-0.58269-0.36798-1.3034-0.61331-2.162-0.736-0.85868-0.15331-1.8094-0.22997-2.852-0.23"/>
   <path d="m-234.21 71.828c4.7533 3.2e-5 8.4026 0.84337 10.948 2.53 2.5453 1.656 3.818 4.3854 3.818 8.188-3e-5 3.8334-1.288 6.6087-3.864 8.326-2.576 1.6867-6.256 2.53-11.04 2.53h-2.254v10.672h-7.176v-31.418c1.564-0.30663 3.22-0.5213 4.968-0.644s3.2813-0.18397 4.6-0.184m0.46 6.118c-0.52135 2.6e-5 -1.0427 0.01536-1.564 0.046-0.49068 0.03069-0.92002 0.06136-1.288 0.092v9.2h2.254c2.484 1.7e-5 4.3546-0.33732 5.612-1.012s1.886-1.932 1.886-3.772c-2e-5 -0.88931-0.16869-1.6253-0.506-2.208-0.30669-0.58264-0.76669-1.0426-1.38-1.38-0.58269-0.36798-1.3034-0.61331-2.162-0.736-0.85869-0.15331-1.8094-0.22997-2.852-0.23"/>
   <path d="m-204.79 71.828c4.784 3.2e-5 8.4486 0.8587 10.994 2.576 2.5453 1.6867 3.818 4.324 3.818 7.912-2e-5 2.2387-0.52136 4.0634-1.564 5.474-1.012 1.38-2.484 2.4687-4.416 3.266 0.64398 0.79734 1.3186 1.7173 2.024 2.76 0.70531 1.012 1.3953 2.0853 2.07 3.22 0.70531 1.104 1.38 2.2693 2.024 3.496 0.64397 1.196 1.242 2.3767 1.794 3.542h-8.05c-0.58268-1.0427-1.1807-2.1007-1.794-3.174-0.58268-1.0733-1.196-2.116-1.84-3.128-0.61335-1.012-1.2267-1.9627-1.84-2.852-0.61335-0.91999-1.2267-1.748-1.84-2.484h-3.542v11.638h-7.176v-31.418c1.564-0.30663 3.174-0.5213 4.83-0.644 1.6867-0.12263 3.1893-0.18397 4.508-0.184m0.414 6.118c-0.52134 2.6e-5 -0.99668 0.01536-1.426 0.046l-1.15 0.092v8.648h2.024c2.6986 1.7e-5 4.6306-0.33732 5.796-1.012s1.748-1.8246 1.748-3.45c-2e-5 -1.564-0.59802-2.668-1.794-3.312-1.1654-0.67464-2.898-1.012-5.198-1.012"/>
   <path d="m-178.18 88.112c-1e-5 1.564 0.18399 2.9747 0.552 4.232 0.39866 1.2573 0.95066 2.346 1.656 3.266 0.73599 0.88934 1.6253 1.5793 2.668 2.07s2.2386 0.73601 3.588 0.736c1.3186 6e-6 2.4993-0.24533 3.542-0.736 1.0733-0.49066 1.9626-1.1807 2.668-2.07 0.73598-0.91999 1.288-2.0087 1.656-3.266 0.39864-1.2573 0.59798-2.668 0.598-4.232s-0.19936-2.9746-0.598-4.232c-0.36802-1.288-0.92002-2.3766-1.656-3.266-0.70536-0.91998-1.5947-1.6253-2.668-2.116-1.0427-0.49064-2.2234-0.73597-3.542-0.736-1.3494 2.6e-5 -2.5454 0.26069-3.588 0.782-1.0427 0.49069-1.932 1.196-2.668 2.116-0.70534 0.88936-1.2573 1.978-1.656 3.266-0.36801 1.2574-0.55201 2.6527-0.552 4.186m24.334 0c-3e-5 2.7294-0.41403 5.1367-1.242 7.222-0.79736 2.0547-1.9014 3.7873-3.312 5.198-1.4107 1.38-3.0974 2.4227-5.06 3.128-1.932 0.70533-4.0174 1.058-6.256 1.058-2.1774 0-4.232-0.35267-6.164-1.058s-3.6187-1.748-5.06-3.128c-1.4413-1.4107-2.576-3.1433-3.404-5.198-0.828-2.0853-1.242-4.4926-1.242-7.222s0.42933-5.1213 1.288-7.176c0.85866-2.0853 2.0087-3.8333 3.45-5.244 1.472-1.4106 3.1587-2.4686 5.06-3.174 1.932-0.7053 3.956-1.058 6.072-1.058 2.1773 3.3e-5 4.232 0.3527 6.164 1.058s3.6186 1.7634 5.06 3.174 2.576 3.1587 3.404 5.244c0.82797 2.0547 1.242 4.4467 1.242 7.176"/>
   <path d="m-139.6 104.07c-1.2574-2.668-2.4994-5.4433-3.726-8.326s-2.392-5.7346-3.496-8.556-2.1313-5.52-3.082-8.096c-0.92-2.576-1.7173-4.876-2.392-6.9h7.912c0.61332 1.84 1.2727 3.8334 1.978 5.98l2.208 6.348c0.76665 2.116 1.5026 4.14 2.208 6.072s1.3646 3.6033 1.978 5.014c0.58265-1.4107 1.2266-3.082 1.932-5.014 0.73598-1.932 1.472-3.956 2.208-6.072 0.76664-2.116 1.5026-4.232 2.208-6.348 0.73597-2.1466 1.4106-4.14 2.024-5.98h7.636c-0.70537 2.024-1.518 4.324-2.438 6.9s-1.932 5.2747-3.036 8.096-2.2694 5.6733-3.496 8.556-2.4687 5.658-3.726 8.326h-6.9"/>
   <path d="m-115.84 104.07v-31.878h21.528v6.026h-14.352v6.256h12.742v5.888h-12.742v7.682h15.41v6.026h-22.586"/>
   <path d="m-80.809 98.232 1.15 0.092h1.61c3.588 6e-6 6.2406-0.90466 7.958-2.714 1.748-1.8093 2.622-4.3086 2.622-7.498-2.4e-5 -3.3426-0.82802-5.8726-2.484-7.59s-4.278-2.576-7.866-2.576c-0.49068 2.6e-5 -0.99668 0.01536-1.518 0.046-0.52134 2.6e-5 -1.012 0.03069-1.472 0.092v20.148m20.746-10.12c-3.1e-5 2.76-0.42936 5.1673-1.288 7.222s-2.0854 3.7567-3.68 5.106c-1.564 1.3493-3.4807 2.3613-5.75 3.036s-4.8147 1.012-7.636 1.012c-1.288 0-2.7907-0.0613-4.508-0.184-1.7173-0.092-3.404-0.30666-5.06-0.644v-31.05c1.656-0.30663 3.3733-0.50597 5.152-0.598 1.8093-0.12263 3.358-0.18397 4.646-0.184 2.7293 3.2e-5 5.198 0.3067 7.406 0.92 2.2386 0.61336 4.1553 1.5794 5.75 2.898s2.8213 3.0054 3.68 5.06 1.288 4.5234 1.288 7.406"/>
  </g>
 </g>
</svg>
